<svg xmlns="http://www.w3.org/2000/svg" width="1200" height="900" viewBox="0 0 1200 900"><defs><linearGradient id="bg" x1="0" y1="0" x2="0" y2="1"><stop offset="0" stop-color="#2a2d34"/><stop offset="1" stop-color="#191b20"/></linearGradient></defs><rect width="1200" height="900" fill="url(#bg)"/><rect y="648" width="1200" height="252" fill="#000" opacity="0.14"/><g opacity="0.55"><rect x="430" y="210" width="340" height="500" rx="16" fill="#4b5563" stroke="#3b4552" stroke-width="6"/><rect x="470" y="250" width="260" height="180" rx="10" fill="#3f4650"/><rect x="470" y="470" width="260" height="200" rx="10" fill="#3f4650"/><rect x="700" y="440" width="46" height="16" rx="8" fill="#57606f"/><circle cx="714" cy="410" r="15" fill="#57606f"/><circle cx="450" cy="240" r="7" fill="#57606f"/><circle cx="450" cy="300" r="7" fill="#57606f"/><circle cx="450" cy="360" r="7" fill="#57606f"/><circle cx="450" cy="420" r="7" fill="#57606f"/><circle cx="450" cy="480" r="7" fill="#57606f"/><circle cx="450" cy="540" r="7" fill="#57606f"/><circle cx="450" cy="600" r="7" fill="#57606f"/><circle cx="450" cy="660" r="7" fill="#57606f"/><circle cx="750" cy="240" r="7" fill="#57606f"/><circle cx="750" cy="300" r="7" fill="#57606f"/><circle cx="750" cy="360" r="7" fill="#57606f"/><circle cx="750" cy="420" r="7" fill="#57606f"/><circle cx="750" cy="480" r="7" fill="#57606f"/><circle cx="750" cy="540" r="7" fill="#57606f"/><circle cx="750" cy="600" r="7" fill="#57606f"/><circle cx="750" cy="660" r="7" fill="#57606f"/></g><g transform="translate(72,72)"><rect x="0" y="0" width="220" height="64" rx="14" fill="#3a3f4a"/><text x="110" y="42" font-family="Arial, sans-serif" font-size="30" font-weight="700" fill="#fff" text-anchor="middle" letter-spacing="2">AVANT</text></g><text x="72" y="837" font-family="Arial, sans-serif" font-size="30" font-weight="600" fill="#e5e7eb" opacity="0.72">Blindage de porte</text></svg>
